<svg width="64" height="64" viewBox="0 0 64 64" fill="none" xmlns="http://www.w3.org/2000/svg">
<path fill-rule="evenodd" clip-rule="evenodd" d="M32 49C41.3888 49 49 41.3888 49 32C49 22.6112 41.3888 15 32 15C22.6112 15 15 22.6112 15 32C15 41.3888 22.6112 49 32 49ZM32 64C49.6731 64 64 49.6731 64 32C64 14.3269 49.6731 0 32 0C14.3269 0 0 14.3269 0 32C0 49.6731 14.3269 64 32 64Z" fill="#FFEB3B"/>
<path fill-rule="evenodd" clip-rule="evenodd" d="M56.4812 24.442C60.6233 24.4323 63.9891 27.7822 63.9989 31.9243C64.0119 37.4458 62.5961 42.8767 59.889 47.689C57.1819 52.5013 53.2757 56.5313 48.5501 59.3871C43.8245 62.243 38.4404 63.8275 32.9212 63.9866C27.402 64.1457 21.9356 62.8741 17.0533 60.2952C13.3907 58.3606 11.9899 53.8232 13.9245 50.1606C15.8591 46.498 20.3965 45.0972 24.0591 47.0318C26.6528 48.4018 29.5569 49.0774 32.4889 48.9929C35.421 48.9083 38.2813 48.0665 40.7918 46.5494C43.3022 45.0322 45.3774 42.8913 46.8156 40.3347C48.2537 37.7782 49.0059 34.893 48.9989 31.9597C48.9892 27.8176 52.3391 24.4518 56.4812 24.442Z" fill="#FDD835"/>
<path fill-rule="evenodd" clip-rule="evenodd" d="M36.4258 15.5862C33.8355 14.8878 31.1167 14.8123 28.4917 15.3659C24.4387 16.2207 20.4602 13.6281 19.6054 9.57515C18.7505 5.52218 21.3432 1.54363 25.3961 0.688825C30.3374 -0.353325 35.4551 -0.211236 40.3309 1.10347C45.2067 2.41818 49.7021 4.86818 53.4496 8.25316L48.4223 13.8188L53.4496 8.25316C57.1971 11.6381 60.0903 15.862 61.8926 20.5793C63.6949 25.2967 64.3551 30.3737 63.8193 35.3951C63.3799 39.5138 59.6847 42.4965 55.5659 42.057C51.4472 41.6176 48.4645 37.9224 48.904 33.8036C49.1886 31.136 48.8379 28.4389 47.8804 25.9328L54.8865 23.2561L47.8804 25.9328C46.9229 23.4267 45.3859 21.1828 43.3951 19.3845C41.4042 17.5862 39.016 16.2847 36.4258 15.5862Z" fill="#FBC02D"/>
</svg>
